<?xml version="1.0" standalone="no"?><!DOCTYPE svg PUBLIC "-//W3C//DTD SVG 1.1//EN" "http://www.w3.org/Graphics/SVG/1.1/DTD/svg11.dtd"><svg t="1697439922374" class="icon" viewBox="0 0 1024 1024" version="1.1" xmlns="http://www.w3.org/2000/svg" p-id="2784" xmlns:xlink="http://www.w3.org/1999/xlink" width="200" height="200"><path d="M864.142222 0H159.857778A160 160 0 0 0 0 159.857778v704.284444A160 160 0 0 0 159.857778 1024h704.284444A160 160 0 0 0 1024 864.142222V159.857778A160 160 0 0 0 864.142222 0zM37.973333 159.857778a122.026667 122.026667 0 0 1 121.884445-121.884445h704.284444a122.026667 122.026667 0 0 1 121.884445 121.884445v133.404444a18.346667 18.346667 0 0 0-4.551111-0.853333H37.973333z m826.311111 826.311111H159.857778a122.026667 122.026667 0 0 1-121.884445-121.884445V330.24H981.333333a18.346667 18.346667 0 0 0 4.551111-0.853333v534.755555a122.026667 122.026667 0 0 1-121.742222 121.884445z" fill="#231F20" p-id="2785"></path><path d="M682.666667 496.64a18.915556 18.915556 0 1 0-26.88 26.88l106.524444 106.524444a32.568889 32.568889 0 0 1 0 46.08L654.222222 784.64a18.915556 18.915556 0 1 0 26.88 26.88l108.657778-108.657778a71.111111 71.111111 0 0 0 0-99.555555zM256.711111 675.982222a32.568889 32.568889 0 0 1 0-46.08l106.524445-106.524444a18.915556 18.915556 0 1 0-26.88-26.88l-106.524445 106.524444a71.111111 71.111111 0 0 0 0 99.555556l108.657778 108.657778a18.915556 18.915556 0 0 0 26.88-26.88zM572.871111 464.497778a18.915556 18.915556 0 0 0-24.035555 11.946666l-118.328889 350.151112a18.915556 18.915556 0 1 0 35.982222 12.515555l118.328889-350.151111a18.915556 18.915556 0 0 0-11.946667-24.462222z" fill="#231F20" p-id="2786"></path><path d="M177.493333 168.248889m-37.831111 0a37.831111 37.831111 0 1 0 75.662222 0 37.831111 37.831111 0 1 0-75.662222 0Z" fill="#231F20" p-id="2787"></path><path d="M306.748615 168.220651m-36.947179 8.130124a37.831111 37.831111 0 1 0 73.894358-16.260249 37.831111 37.831111 0 1 0-73.894358 16.260249Z" fill="#231F20" p-id="2788"></path><path d="M436.276619 168.283371m-36.947179 8.130125a37.831111 37.831111 0 1 0 73.894358-16.260249 37.831111 37.831111 0 1 0-73.894358 16.260249Z" fill="#231F20" p-id="2789"></path></svg>